<svg width="100" height="100" viewBox="0 0 100 100" fill="none" xmlns="http://www.w3.org/2000/svg">
<rect width="100" height="100" fill="#212324"/>
<path d="M29 39.3056V60.6944H33.014V39.3056H29Z" fill="white"/>
<path d="M36.4392 60.6944H40.0073L49.6707 39.3056H46.1027L36.4392 60.6944Z" fill="white"/>
<path d="M55.3085 50C55.3085 49.0222 55.4571 48.075 55.8139 47.1583C56.1708 46.2722 56.6465 45.5083 57.2412 44.8361C57.8358 44.1639 58.5792 43.6444 59.4117 43.2472C60.2443 42.8806 61.1363 42.6667 62.1472 42.6667C63.0987 42.6667 64.0204 42.8806 64.853 43.2472C65.6855 43.6444 66.4289 44.1639 67.0235 44.8361C67.6182 45.5083 68.0939 46.2722 68.4508 47.1583C68.8076 48.075 68.986 49.0222 68.986 50C68.986 51.0389 68.8076 51.9861 68.4508 52.8722C68.0939 53.7583 67.6182 54.5222 67.0235 55.1944C66.4289 55.8667 65.6855 56.3861 64.853 56.7528C64.0204 57.15 63.0987 57.3333 62.1472 57.3333C61.1363 57.3333 60.2443 57.15 59.4117 56.7528C58.5792 56.3861 57.8358 55.8667 57.2412 55.1944C56.6465 54.5222 56.1708 53.7583 55.8139 52.8722C55.4571 51.9861 55.3085 51.0389 55.3085 50ZM51.2944 50C51.2944 51.5278 51.5323 52.9639 52.0675 54.3083C52.6027 55.6528 53.3461 56.8139 54.2975 57.7917C55.249 58.7694 56.4086 59.5639 57.7466 60.1444C59.0549 60.725 60.5416 61 62.1472 61C63.7528 61 65.2098 60.725 66.5478 60.1444C67.8561 59.5639 69.0157 58.7694 69.9672 57.7917C70.9186 56.8139 71.662 55.6528 72.1972 54.3083C72.7324 52.9639 73 51.5278 73 50C73 48.4722 72.7324 47.0667 72.1972 45.7222C71.662 44.3778 70.9186 43.2167 69.9672 42.2389C69.0157 41.2611 67.8561 40.4667 66.5478 39.8861C65.2098 39.3056 63.7528 39 62.1472 39C60.5416 39 59.0549 39.3056 57.7466 39.8861C56.4086 40.4667 55.249 41.2611 54.2975 42.2389C53.3461 43.2167 52.6027 44.3778 52.0675 45.7222C51.5323 47.0667 51.2944 48.4722 51.2944 50Z" fill="white"/>
</svg>
